<svg width="51" height="54" viewBox="0 0 51 54" fill="none" xmlns="http://www.w3.org/2000/svg">
<circle cx="25.5" cy="25.5" r="25" fill="#5E7600" stroke="white"/>
<g filter="url(#filter0_d_11_4)">
<path d="M29.2495 15.7972H18.2894V13H33.016V15.3427L26.1617 22.965H26.4331C30.505 22.965 34 25.2378 34 30.2378C34 34.6783 30.5389 38 25.8902 38C20.9361 38 17 33.8042 17 28.3846H19.7146C19.7146 32.3706 22.3613 35.3427 25.8224 35.3427C28.9441 35.3427 31.2854 33.1399 31.2854 30.2727C31.2854 27.2308 29.1477 25.1678 25.8902 25.1678H24.1597L22.7006 23.4545L29.2495 15.7972Z" fill="#F6FFD2"/>
</g>
<defs>
<filter id="filter0_d_11_4" x="11" y="13" width="29" height="41" filterUnits="userSpaceOnUse" color-interpolation-filters="sRGB">
<feFlood flood-opacity="0" result="BackgroundImageFix"/>
<feColorMatrix in="SourceAlpha" type="matrix" values="0 0 0 0 0 0 0 0 0 0 0 0 0 0 0 0 0 0 127 0" result="hardAlpha"/>
<feOffset dy="10"/>
<feGaussianBlur stdDeviation="3"/>
<feComposite in2="hardAlpha" operator="out"/>
<feColorMatrix type="matrix" values="0 0 0 0 1 0 0 0 0 1 0 0 0 0 1 0 0 0 0.15 0"/>
<feBlend mode="normal" in2="BackgroundImageFix" result="effect1_dropShadow_11_4"/>
<feBlend mode="normal" in="SourceGraphic" in2="effect1_dropShadow_11_4" result="shape"/>
</filter>
</defs>
</svg>
