<svg width="51" height="51" viewBox="0 0 51 51" fill="none" xmlns="http://www.w3.org/2000/svg">
<circle cx="25.5" cy="25.5" r="25" fill="#5E7600" stroke="white"/>
<path d="M17 29.1888C17 27.2308 17.6152 25.3776 18.8133 23.5245L25.7752 13H28.8514L23.9619 20.4825C24.4476 20.3776 24.9657 20.3427 25.5162 20.3427C30.4057 20.3427 34 24.014 34 29.1888C34 34.3986 30.4057 38 25.5162 38C20.5619 38 17 34.2587 17 29.1888ZM19.5905 29.1888C19.5905 32.7203 22.1162 35.3427 25.5162 35.3427C28.981 35.3427 31.4095 32.8601 31.4095 29.1888C31.4095 25.5524 28.9486 23 25.5162 23C22.0838 23 19.5905 25.6224 19.5905 29.1888Z" fill="#F6FFD2"/>
</svg>
